<?xml version="1.0" encoding="UTF-8"?>
<svg version="1.1" xmlns="http://www.w3.org/2000/svg" width="1280" height="876">
<path d="M0 0 C1.08710345 0.98192157 2.17435132 1.96368327 3.26171875 2.9453125 C4.40397795 3.98400989 5.545908 5.02306937 6.6875 6.0625 C7.21021484 6.53292725 7.73292969 7.00335449 8.27148438 7.48803711 C8.78388672 7.95733643 9.29628906 8.42663574 9.82421875 8.91015625 C10.35241211 9.38904297 10.88060547 9.86792969 11.42480469 10.36132812 C13 12 13 12 14.41113281 14.13867188 C16.98503686 17.87322669 18.67513931 19.75301574 23.24389648 20.60473633 C26.5900948 20.69876102 29.86175286 20.66499939 33.20117188 20.48815918 C36.91038351 20.29507522 40.62284573 20.24181515 44.3359375 20.1640625 C45.07865906 20.144646 45.82138062 20.12522949 46.58660889 20.10522461 C89.82179265 19.06074098 134.39015233 31.13285589 173 50 C173.82741699 50.39880371 174.65483398 50.79760742 175.50732422 51.20849609 C195.12337833 60.74809293 213.67725718 72.71866388 230.4375 86.69775391 C232.03027751 88.02523441 233.63961802 89.33067979 235.25 90.63671875 C249.73759949 102.56010396 263.68603514 116.00483701 275 131 C276.01928874 132.30459369 277.04026925 133.60786653 278.0625 134.91015625 C311.55164804 177.80526746 331.84865372 227.27928928 340 281 C340.13422363 281.88381348 340.26844727 282.76762695 340.40673828 283.67822266 C343.95621918 308.57451134 343.7519089 336.14815683 340 361 C339.76603516 362.57056152 339.76603516 362.57056152 339.52734375 364.17285156 C336.91691335 381.14548331 333.18470041 397.62928104 328 414 C327.71318359 414.9084668 327.42636719 415.81693359 327.13085938 416.75292969 C314.93429852 454.48517946 294.13702451 489.33427203 268 519 C267.31292969 519.79792969 266.62585937 520.59585938 265.91796875 521.41796875 C255.29995107 533.53834457 243.80776855 545.20481141 231 555 C229.73866549 556.00014564 228.47832541 557.00154612 227.21875 558.00390625 C182.00940749 593.65844964 126.40967804 616.0229513 69 621 C67.783125 621.11085938 66.56625 621.22171875 65.3125 621.3359375 C58.90584249 621.81385348 52.61323784 622.04875692 46.18525696 621.84423828 C43.30789901 621.75373053 40.43006419 621.69090995 37.55203247 621.62591553 C36.11178791 621.58396215 34.67189591 621.52694062 33.23287964 621.4541626 C25.02969368 620.80677632 25.02969368 620.80677632 17.6237793 623.66918945 C15.85739093 625.69076711 14.42165958 627.72715746 13 630 C8.62934137 634.64035445 4.01115851 638.95158823 -0.82421875 643.1015625 C-3.30652198 645.26745005 -5.71055145 647.50876957 -8.125 649.75 C-13.87233833 654.98418312 -19.90023911 659.77762531 -26.06396484 664.50976562 C-28.09807007 666.07548798 -30.12154767 667.65431538 -32.14453125 669.234375 C-41.16880976 676.25165232 -50.34779303 682.87391162 -60 689 C-61.01368652 689.64485352 -61.01368652 689.64485352 -62.04785156 690.30273438 C-122.55998775 728.55913796 -192.3426261 753.10354834 -264 758 C-265.07435303 758.08241943 -265.07435303 758.08241943 -266.17041016 758.16650391 C-343.71105049 764.01960501 -422.33173665 748.30320877 -492 714 C-492.96953613 713.52481934 -493.93907227 713.04963867 -494.93798828 712.56005859 C-517.48932837 701.40871739 -538.99631933 688.26399327 -559 673 C-559.62793457 672.52224121 -560.25586914 672.04448242 -560.90283203 671.55224609 C-573.06637676 662.25071189 -584.70171866 652.33276105 -596 642 C-597.08710345 641.01807843 -598.17435132 640.03631673 -599.26171875 639.0546875 C-600.40397795 638.01599011 -601.545908 636.97693063 -602.6875 635.9375 C-603.47157227 635.23185913 -603.47157227 635.23185913 -604.27148438 634.51196289 C-604.78388672 634.04266357 -605.29628906 633.57336426 -605.82421875 633.08984375 C-606.61542114 632.37151367 -606.61542114 632.37151367 -607.42260742 631.63867188 C-609 630 -609 630 -610.4309082 627.86132812 C-612.97422599 624.20805945 -614.65317128 622.25988118 -619.1340332 621.39526367 C-622.34485081 621.30146838 -625.50934216 621.33551221 -628.71652222 621.51184082 C-632.30592196 621.70562796 -635.89873746 621.75853124 -639.4921875 621.8359375 C-640.21585007 621.855354 -640.93951263 621.87477051 -641.68510437 621.89477539 C-708.7994621 623.55186164 -776.67620052 596.18770561 -828 554 C-828.53834473 553.56461914 -829.07668945 553.12923828 -829.63134766 552.68066406 C-844.73826819 540.42402093 -859.2689409 526.54796619 -871 511 C-872.01928874 509.69540631 -873.04026925 508.39213347 -874.0625 507.08984375 C-907.59964674 464.13325264 -927.69983005 414.74795364 -936 361 C-936.13422363 360.15920898 -936.26844727 359.31841797 -936.40673828 358.45214844 C-947.49911551 285.84466093 -926.08925982 205.54013214 -883.07421875 146.54296875 C-866.8868266 124.80109842 -848.71972384 103.40307378 -827 87 C-825.7187231 85.99257336 -824.43889756 84.9832994 -823.16015625 83.97265625 C-777.9430469 48.48236133 -722.45176729 25.7461857 -665 21 C-663.85426514 20.90517334 -662.70853027 20.81034668 -661.52807617 20.71264648 C-654.47316106 20.19636975 -647.53582208 19.94694152 -640.46484375 20.18359375 C-639.76201767 20.20323685 -639.05919159 20.22287994 -638.33506775 20.24311829 C-635.47127863 20.32327262 -632.60963528 20.40339478 -629.74829102 20.54858398 C-621.2664118 21.21862931 -621.2664118 21.21862931 -613.58813477 18.33081055 C-611.82262578 16.30970257 -610.40489208 14.28174327 -609 12 C-604.62934137 7.35964555 -600.01115851 3.04841177 -595.17578125 -1.1015625 C-592.69347802 -3.26745005 -590.28944855 -5.50876957 -587.875 -7.75 C-582.12766167 -12.98418312 -576.09976089 -17.77762531 -569.93603516 -22.50976562 C-567.90192993 -24.07548798 -565.87845233 -25.65431538 -563.85546875 -27.234375 C-554.83119024 -34.25165232 -545.65220697 -40.87391162 -536 -47 C-534.98631348 -47.64485352 -534.98631348 -47.64485352 -533.95214844 -48.30273438 C-448.06841102 -102.59932887 -345.32661953 -126.64684752 0 0 Z M-457 -15 C-457.88864746 -14.58250488 -458.77729492 -14.16500977 -459.69287109 -13.73486328 C-484.49658683 -1.99210884 -507.52559407 12.95026562 -529 30 C-529.8559375 30.66257812 -530.711875 31.32515625 -531.59375 32.0078125 C-537.38973107 36.53821542 -542.80288344 41.40332998 -548.1875 46.40625 C-550.46547825 48.50705217 -552.77018126 50.54950978 -555.125 52.5625 C-562.68335076 59.13087967 -569.51061206 66.38995471 -576 74 C-576.84820313 74.9590625 -577.69640625 75.918125 -578.5703125 76.90625 C-607.52676863 109.80299904 -630.2403507 148.09270568 -646.05932617 188.92163086 C-649.52981565 197.77395508 -653.81795393 204.88494102 -662.51171875 209.265625 C-672.15001768 213.17044225 -680.76881853 213.23462408 -690.421875 209.33203125 C-697.62239473 205.61176272 -703.12437575 199.83281284 -706.0703125 192.2421875 C-711.93128095 171.80267569 -698.46602449 150.73459033 -690 133 C-689.63616211 132.23768066 -689.27232422 131.47536133 -688.89746094 130.68994141 C-684.93317125 122.44941157 -680.63779977 114.39699203 -676.25 106.375 C-675.78980469 105.53291992 -675.32960938 104.69083984 -674.85546875 103.82324219 C-672.91004406 100.30247724 -670.95386455 96.8537626 -668.671875 93.5390625 C-666.81668438 91.22827787 -666.81668438 91.22827787 -667 89 C-673.15413424 88.71139233 -678.69449018 89.77998933 -684.6875 91.125 C-685.70134766 91.3516333 -686.71519531 91.5782666 -687.75976562 91.81176758 C-723.23378343 99.92968967 -757.14720226 115.28332072 -785 139 C-786.08425071 139.90020314 -787.16891687 140.79990603 -788.25390625 141.69921875 C-800.33727944 151.79582429 -811.30811536 162.56149824 -821 175 C-821.77601563 175.94746094 -822.55203125 176.89492188 -823.3515625 177.87109375 C-834.60560374 191.89398641 -843.43674325 207.72436083 -851 224 C-851.51949219 225.10988281 -852.03898438 226.21976562 -852.57421875 227.36328125 C-877.52783943 283.09958361 -878.12831701 347.02261597 -857.13427734 404.04785156 C-847.07554577 430.22740002 -832.58523323 454.02919952 -814 475 C-813.23945312 475.87140625 -812.47890625 476.7428125 -811.6953125 477.640625 C-778.58143599 515.11469166 -733.81522396 540.49853284 -685 551 C-684.02466309 551.21027832 -683.04932617 551.42055664 -682.04443359 551.63720703 C-653.90666115 557.41856486 -624.95933872 556.02291373 -596.65844727 552.16186523 C-593.83979413 551.99024552 -591.70281057 552.18709059 -589 553 C-586.87267134 554.97372046 -585.01367232 556.88345041 -583.125 559.0625 C-582.63386719 559.61099609 -582.14273437 560.15949219 -581.63671875 560.72460938 C-579.55911815 563.05314095 -577.50772606 565.40183114 -575.48828125 567.78100586 C-570.40107587 573.72304122 -564.92309469 579.26303092 -559.39501953 584.7902832 C-557.76172552 586.42575882 -556.1366153 588.06907708 -554.51171875 589.71289062 C-547.9978626 596.26167329 -541.26193799 602.27390509 -534 608 C-532.76814549 609.01236323 -531.53862748 610.02758297 -530.3125 611.046875 C-455.35317695 672.53598879 -356.02128002 700.44733423 -260 691 C-185.24059501 682.98298533 -110.0833419 652.48134612 -54.4140625 601.1640625 C-51.91143822 598.92060967 -49.32130161 596.83730675 -46.6875 594.75 C-37.92849703 587.6558288 -29.93203217 579.52006969 -22.6484375 570.921875 C-21.47417569 569.55283043 -20.26711245 568.2116349 -19.0390625 566.890625 C-11.75639612 559.05584312 -5.37551293 550.57424237 1 542 C1.45020508 541.39639648 1.90041016 540.79279297 2.36425781 540.17089844 C22.27698822 513.32933497 37.45403949 483.87280601 50.05859375 452.984375 C53.86454098 443.72433276 57.2830128 437.02710039 66.6875 432.625 C75.32616494 429.09588289 84.2294433 428.71265843 93.01171875 432.09765625 C100.27864724 435.39561397 106.51449288 441.20189048 109.9375 448.5 C115.04400641 465.98895005 106.96980352 481.20318389 100 497 C99.60039063 497.91281738 99.20078125 498.82563477 98.7890625 499.76611328 C91.28965672 516.70293618 82.35539244 533.16357759 72.328125 548.734375 C70.83142683 550.84986452 70.83142683 550.84986452 71 553 C77.21992144 553.30151974 82.82092713 552.17896638 88.875 550.8125 C89.89730713 550.58328857 90.91961426 550.35407715 91.97290039 550.11791992 C122.20761766 543.21463796 150.69371116 531.04100662 176 513 C177.01191406 512.28328125 178.02382812 511.5665625 179.06640625 510.828125 C196.15041623 498.36202983 212.12374513 483.81566851 225 467 C225.41958984 466.45682129 225.83917969 465.91364258 226.27148438 465.35400391 C237.5942979 450.62194908 247.22283103 434.87701274 255 418 C255.3309668 417.28827637 255.66193359 416.57655273 256.00292969 415.84326172 C281.65088833 359.99452498 282.24494689 295.2941809 261.13427734 237.95214844 C251.07554577 211.77259998 236.58523323 187.97080048 218 167 C217.23945312 166.12859375 216.47890625 165.2571875 215.6953125 164.359375 C176.67485233 120.20098946 121.51461721 92.8999646 63 87 C57.43988572 86.76125981 51.87712653 86.75816108 46.3125 86.75 C45.52519501 86.74733124 44.73789001 86.74466248 43.92672729 86.74191284 C31.47053575 86.72190834 19.28408436 87.46432614 6.92504883 89.02050781 C5.81669678 89.1594043 4.70834473 89.29830078 3.56640625 89.44140625 C2.60677979 89.57232666 1.64715332 89.70324707 0.65844727 89.83813477 C-2.16020587 90.00975448 -4.29718943 89.81290941 -7 89 C-9.12830405 87.02537458 -10.98542852 85.11719301 -12.875 82.9375 C-13.67043213 82.04840942 -13.67043213 82.04840942 -14.48193359 81.14135742 C-17.22943552 78.06060848 -19.92594017 74.9356978 -22.625 71.8125 C-26.82358969 66.95530801 -31.43002988 62.50384515 -36 58 C-38.44786923 55.56353389 -40.88409031 53.11947005 -43.2890625 50.640625 C-49.1885127 44.60306058 -55.395841 39.24573561 -62 34 C-63.12254229 33.07728025 -64.24357015 32.15271582 -65.36328125 31.2265625 C-140.11683181 -30.24200984 -236.85315721 -56.94502543 -457 -15 Z " fill="#FFFFFF" transform="translate(938,117)"/>
<path d="M0 0 C0.8971875 0.68578125 1.794375 1.3715625 2.71875 2.078125 C9.48413696 7.34485029 15.77962626 13.11001988 22 19 C22.93070313 19.8765625 23.86140625 20.753125 24.8203125 21.65625 C31.41424839 28.04353833 37.11699521 34.8519756 42.62060547 42.171875 C43.9935265 43.9914206 45.38795842 45.79280849 46.78515625 47.59375 C53.38255834 56.21007984 58.81712715 65.22314077 63.85644531 74.82714844 C64.91371201 76.83604545 65.99679399 78.8285869 67.0859375 80.8203125 C79.66946979 104.32824697 86.64727088 130.66251455 90 157 C90.09571289 157.71679932 90.19142578 158.43359863 90.29003906 159.17211914 C91.27076652 167.48106007 91.24363212 175.83262827 91.25 184.1875 C91.25067474 184.98512756 91.25134949 185.78275513 91.25204468 186.60455322 C91.23419715 199.93482279 90.49105022 212.87540177 88 226 C87.83371094 226.89219238 87.66742187 227.78438477 87.49609375 228.70361328 C81.31768912 260.77983067 68.99949751 291.36647016 50 318 C49.58057129 318.59458008 49.16114258 319.18916016 48.72900391 319.80175781 C41.44263106 330.07093255 33.3923947 339.33361588 24.609375 348.34814453 C23.2817637 349.71079896 21.9672043 351.08615681 20.65625 352.46484375 C15.50136738 357.7993022 9.80806584 362.39810656 4 367 C3.04609375 367.78246094 2.0921875 368.56492187 1.109375 369.37109375 C-29.18350243 393.64423272 -66.93684662 408.63226209 -105 415 C-105.67514648 415.11859375 -106.35029297 415.2371875 -107.04589844 415.359375 C-131.08550106 419.41221317 -158.12388309 418.53168967 -182 414 C-182.89219238 413.83371094 -183.78438477 413.66742187 -184.70361328 413.49609375 C-216.77983067 407.31768912 -247.36647016 394.99949751 -274 376 C-274.59458008 375.58057129 -275.18916016 375.16114258 -275.80175781 374.72900391 C-286.05744476 367.45220117 -295.30936742 359.41745598 -304.30957031 350.64355469 C-305.73157445 349.26098221 -307.17229281 347.89769482 -308.6171875 346.5390625 C-315.14979777 340.28542491 -320.58909259 333.21969094 -326 326 C-326.43489746 325.42056641 -326.86979492 324.84113281 -327.31787109 324.24414062 C-347.97826463 296.50891381 -362.30186198 264.71941354 -369.25 230.8125 C-369.40114258 230.07837891 -369.55228516 229.34425781 -369.70800781 228.58789062 C-372.46582224 214.20741356 -373.37969607 199.92405545 -373.3125 185.3125 C-373.31067719 184.48339111 -373.30885437 183.65428223 -373.30697632 182.80004883 C-373.25850922 169.65867654 -372.58034415 156.91695902 -370 144 C-369.83371094 143.12633789 -369.66742188 142.25267578 -369.49609375 141.35253906 C-363.2703509 109.24384677 -351.03584273 78.67072209 -332 52 C-331.57525391 51.40010254 -331.15050781 50.80020508 -330.71289062 50.18212891 C-323.68568927 40.31778173 -316.03813054 31.3162532 -307.59277344 22.63964844 C-306.1761962 21.18138162 -304.77813085 19.70518344 -303.3828125 18.2265625 C-296.81649945 11.40190271 -289.56865201 5.65556139 -282 0 C-281.4220166 -0.43344727 -280.8440332 -0.86689453 -280.24853516 -1.31347656 C-249.70274377 -24.06970296 -214.55008369 -38.71809558 -177 -45 C-175.98728027 -45.17789063 -175.98728027 -45.17789063 -174.95410156 -45.359375 C-114.35699376 -55.57544536 -48.08938908 -37.63780075 0 0 Z M-216 123 C-232.87194073 143.68285136 -239.66127853 168.9564591 -237.7578125 195.359375 C-234.77744705 221.75689753 -221.1785016 245.17659098 -200.671875 261.8984375 C-179.09971173 277.68468943 -153.28874224 285.06455183 -126.63500977 281.22851562 C-101.33030934 277.03855494 -77.60571201 263.13816745 -62.375 242.3125 C-47.42304685 219.70825007 -40.80777064 194.92212371 -45.1875 167.76171875 C-50.65701139 142.43893283 -64.23688057 119.24093235 -86.19140625 104.71875 C-130.09408863 77.85201808 -181.29576497 84.65504996 -216 123 Z " fill="#FFFFFF" transform="translate(781,253)"/>
<path d="M0 0 C0.77885559 -0.00100708 1.55771118 -0.00201416 2.36016846 -0.00305176 C25.49769328 0.01695373 48.44187092 2.28543181 71.0625 7.25 C72.12082031 7.48170898 73.17914062 7.71341797 74.26953125 7.95214844 C108.40528307 15.60021048 141.01122907 28.2800153 171.0625 46.25 C171.83110352 46.70842285 172.59970703 47.1668457 173.39160156 47.63916016 C185.22582742 54.76138774 196.26826352 62.64347241 207.0625 71.25 C208.57070312 72.43722656 208.57070312 72.43722656 210.109375 73.6484375 C227.88001686 87.87522304 245.16343548 104.21244998 259.0625 122.25 C259.98349083 123.37396122 260.90824199 124.49484754 261.8359375 125.61328125 C274.31628694 140.73753159 284.52493079 157.14992402 294.0625 174.25 C294.4553418 174.94383789 294.84818359 175.63767578 295.25292969 176.35253906 C321.78099844 223.3703182 334.27019399 278.44380382 334.3125 332.1875 C334.31351212 333.35827591 334.31351212 333.35827591 334.31454468 334.55270386 C334.18841416 427.48967905 294.97385025 510.58087669 229.99169922 575.50610352 C224.26629103 581.16358313 218.44008047 586.33567392 212.0625 591.25 C210.93853878 592.17099083 209.81765246 593.09574199 208.69921875 594.0234375 C193.57496841 606.50378694 177.16257598 616.71243079 160.0625 626.25 C159.36866211 626.6428418 158.67482422 627.03568359 157.95996094 627.44042969 C83.55520452 669.4206025 -8.54832894 676.53127796 -90.16894531 654.17749023 C-124.06958624 644.46493104 -157.05953083 629.58943435 -185.9375 609.25 C-187.55591797 608.13431641 -187.55591797 608.13431641 -189.20703125 606.99609375 C-214.17146726 589.63629608 -238.35568465 568.36460306 -256.9375 544.25 C-257.85849083 543.12603878 -258.78324199 542.00515246 -259.7109375 540.88671875 C-271.65314257 526.41461603 -281.56858123 510.77773583 -290.72070312 494.42089844 C-291.8063806 492.48393132 -292.90910229 490.55790317 -294.015625 488.6328125 C-320.00395009 442.04398581 -332.13931422 387.39835234 -332.1875 334.3125 C-332.18850708 333.53331207 -332.18951416 332.75412415 -332.19055176 331.95132446 C-332.17697009 316.23553586 -331.04301348 300.83629836 -328.9375 285.25 C-328.80359863 284.24791504 -328.66969727 283.24583008 -328.53173828 282.21337891 C-317.51136991 203.38768949 -273.38148644 124.13757397 -209.9375 75.25 C-208.81353878 74.32900917 -207.69265246 73.40425801 -206.57421875 72.4765625 C-192.10211603 60.53435743 -176.46523583 50.61891877 -160.10839844 41.46679688 C-158.17143132 40.3811194 -156.24540317 39.27839771 -154.3203125 38.171875 C-107.73148262 12.18354813 -53.0858545 0.04819157 0 0 Z M-54.9375 68.25 C-56.21343018 68.52650391 -56.21343018 68.52650391 -57.51513672 68.80859375 C-77.85475354 73.33805344 -97.21343235 80.12605762 -115.9375 89.25 C-117.32654541 89.92506592 -117.32654541 89.92506592 -118.74365234 90.61376953 C-141.77971 101.93156934 -162.56314645 116.21188594 -181.2734375 133.7734375 C-183.44910937 135.7959829 -185.65914473 137.72168264 -187.9375 139.625 C-230.16847939 176.43502552 -255.52371646 233.36319436 -265.9375 287.25 C-266.20868652 288.58780518 -266.20868652 288.58780518 -266.48535156 289.95263672 C-271.9637526 317.97090049 -271.58530501 351.30021562 -265.9375 379.25 C-265.73882324 380.28962891 -265.54014648 381.32925781 -265.33544922 382.40039062 C-260.90378345 405.27907266 -254.19066458 427.29600958 -243.9375 448.25 C-243.50985352 449.12978516 -243.08220703 450.00957031 -242.64160156 450.91601562 C-230.99127782 474.64419793 -216.50896434 496.3104398 -198.4140625 515.5859375 C-196.3915171 517.76160937 -194.46581736 519.97164473 -192.5625 522.25 C-149.53476884 571.61435665 -79.92405086 598.93524348 -16.0390625 603.71875 C8.413553 605.24901045 33.12150153 603.43997537 57.0625 598.25 C57.91312012 598.06566406 58.76374023 597.88132812 59.64013672 597.69140625 C79.17862324 593.34035147 98.05766136 587.00411422 116.0625 578.25 C116.94663574 577.82090332 117.83077148 577.39180664 118.74169922 576.94970703 C142.46432649 565.30016585 164.12692217 550.81772589 183.3984375 532.7265625 C185.57410937 530.7040171 187.78414473 528.77831736 190.0625 526.875 C200.33566185 517.9205463 208.90456996 507.10793976 217.0625 496.25 C217.47709473 495.7029541 217.89168945 495.1559082 218.31884766 494.59228516 C243.00393689 461.82559318 259.50131511 423.62531779 267.3125 383.4375 C267.53909302 382.27661865 267.53909302 382.27661865 267.77026367 381.09228516 C270.67242816 365.25723766 271.43618349 349.69580818 271.375 333.625 C271.37284485 332.60642914 271.3706897 331.58785828 271.36846924 330.53842163 C271.31876044 315.90693807 270.96896534 301.63347807 268.0625 287.25 C267.86382324 286.21037109 267.66514648 285.17074219 267.46044922 284.09960938 C262.86687208 260.38505234 255.69536258 237.94235236 245.0625 216.25 C244.38960937 214.86748047 244.38960937 214.86748047 243.703125 213.45703125 C232.38439651 190.41533396 218.10444935 169.62843971 200.5390625 150.9140625 C198.5165171 148.73839063 196.59081736 146.52835527 194.6875 144.25 C178.86318864 126.09526749 157.68256397 111.39769972 137.0625 99.25 C136.19431641 98.72672119 136.19431641 98.72672119 135.30859375 98.19287109 C79.2196963 64.46987579 8.73070906 54.44788404 -54.9375 68.25 Z " fill="#FFFFFF" transform="translate(638.9375,104.75)"/>
<path d="M0 0 C17.86371235 14.36011973 29.03634082 33.66873814 32.02734375 56.43359375 C33.82901071 77.65005645 29.32892327 100.04827848 15.76708984 117.00976562 C12.68150212 120.64877705 9.39766244 124.05836206 6.02734375 127.43359375 C5.36992188 128.10261719 4.7125 128.77164063 4.03515625 129.4609375 C-12.17002301 144.79674019 -34.34782126 150.1221792 -56.02734375 149.68359375 C-77.97867831 148.84415457 -96.74550378 138.63858151 -111.97265625 123.43359375 C-112.64167969 122.77617187 -113.31070313 122.11875 -114 121.44140625 C-129.19038248 105.38989098 -134.78341202 83.1597167 -134.27734375 61.6328125 C-133.26958923 39.19153513 -122.85542793 19.35988159 -106.8046875 3.8515625 C-76.17821233 -22.29711078 -32.38768221 -23.74029117 0 0 Z M-95.97265625 25.43359375 C-108.46356403 40.87801667 -112.34757464 56.82756469 -110.97265625 76.43359375 C-108.98727124 91.146593 -100.44739214 104.57952449 -89.03125 113.8125 C-74.06022928 125.00987151 -57.30710747 128.63777891 -38.86669922 126.14941406 C-22.64797056 123.03668662 -9.26702622 112.99807885 -0.08325195 99.58154297 C8.95091039 85.63045971 11.50156928 68.7001851 8.37890625 52.4296875 C3.95057677 35.49227346 -6.41390915 22.42579682 -21.23193359 13.40429688 C-45.60105282 -0.18499037 -77.09960861 4.92237922 -95.97265625 25.43359375 Z " fill="#FFFFFF" transform="translate(690.97265625,371.56640625)"/>
<path d="M0 0 C2.12692848 3.51405574 2.09558927 5.29484655 1.4375 9.375 C-4.38556441 22.17339598 -14.97569214 30.27384016 -27.6875 35.75 C-33.5092237 37.89387285 -38.81371248 38.9349382 -44.9375 37.6875 C-47.95045252 36.18102374 -49.18136654 35.4622395 -50.5625 32.375 C-50.70184509 24.15363984 -46.84198523 18.95535543 -41.43359375 13.05078125 C-31.90349282 3.80328628 -13.18272715 -8.35977819 0 0 Z " fill="#FFFFFF" transform="translate(648.5625,395.625)"/>
</svg>
