<svg id="SvgjsSvg1001" width="288" height="288" xmlns="http://www.w3.org/2000/svg" version="1.1" xmlns:xlink="http://www.w3.org/1999/xlink" xmlns:svgjs="http://svgjs.com/svgjs"><defs id="SvgjsDefs1002"></defs><g id="SvgjsG1008"><svg xmlns="http://www.w3.org/2000/svg" viewBox="0 0 1280 440" width="288" height="288"><path fill="#1e2123" d="M0 0 C0.65162109 0.31163086 1.30324219 0.62326172 1.97460938 0.94433594 C18.33004133 8.82195225 32.21386701 20.21386701 45 33 C47.43503907 33.39962513 47.43503907 33.39962513 50.28515625 33.4921875 C51.90466187 33.58632935 51.90466187 33.58632935 53.55688477 33.68237305 C54.71373779 33.74593994 55.87059082 33.80950684 57.0625 33.875 C87.20892741 35.90944672 112.60082726 46.36879705 134 68 C134.79792969 68.77601562 135.59585937 69.55203125 136.41796875 70.3515625 C157.9175652 92.49804946 165.5170891 122.68173562 165.21484375 152.67578125 C164.51573936 181.94697802 150.5994821 208.10895502 130.08544922 228.328125 C112.22465207 245.32560721 86.25305196 258.53498045 61.109375 257.9296875 C50.90140019 257.56310209 50.90140019 257.56310209 41.640625 261.16015625 C39.86033107 263.03262516 38.1475648 264.97136116 36.50390625 266.96484375 C15.61910399 292.2807429 -24.99576559 305.60282467 -56.4699707 308.8190918 C-101.4214838 312.03332235 -144.47182104 300.16606105 -178.8515625 270.54296875 C-185.48427758 264.64396109 -185.48427758 264.64396109 -188.18359375 261.2734375 C-192.22446689 258.01159538 -195.51883729 258.38451067 -200.5625 258.4375 C-227.45434326 257.90003865 -251.00365117 248.93922642 -272 232 C-273.16982422 231.07960937 -273.16982422 231.07960937 -274.36328125 230.140625 C-293.73628052 214.03660429 -308.05963252 187.50296674 -310.80078125 162.50683594 C-313.41313683 129.6346949 -307.09247719 99.38988887 -285.42724609 73.64257812 C-269.62989562 55.46184361 -250.17294565 43.49144406 -227 37 C-226.3493457 36.81526123 -225.69869141 36.63052246 -225.02832031 36.44018555 C-219.39025218 34.99841412 -213.96799819 34.80907263 -208.16650391 34.67382812 C-195.1346019 34.61699671 -195.1346019 34.61699671 -184.625 28 C-183.07755218 26.00446965 -181.53587695 24.00444958 -180 22 C-177.94093192 20.18823514 -175.93455199 18.51252438 -173.75 16.875 C-173.20786865 16.46588379 -172.6657373 16.05676758 -172.10717773 15.63525391 C-165.71016401 10.915546 -158.94478826 6.85489386 -152 3 C-151.37786621 2.65195312 -150.75573242 2.30390625 -150.11474609 1.9453125 C-103.86530247 -23.55839728 -46.93996737 -23.02673565 0 0 Z M-176.61621094 54.42529297 C-187.88414308 67.24783396 -196.51227072 82.17454573 -202.515625 98.109375 C-204.23574869 101.45908956 -205.82160972 103.00636897 -209 105 C-213.22355216 105.91847795 -216.98689163 105.43110995 -220.9375 103.75 C-223.20040404 101.82996021 -224.13479929 100.83156597 -225 98 C-225.43910804 92.13790767 -224.22439466 88.0739822 -221.9375 82.8125 C-221.62675537 82.07507568 -221.31601074 81.33765137 -220.99584961 80.57788086 C-218.51525212 74.83881336 -215.60377381 69.52515067 -212.28515625 64.22265625 C-210.83314787 62.13934126 -210.83314787 62.13934126 -211 60 C-233.55832608 63.40319574 -254.28716334 74.14135239 -268.26220703 92.67382812 C-282.46062428 112.66216227 -289.34929298 136.50271252 -285.28125 160.92578125 C-283.61298704 169.45147365 -281.17167007 177.34225467 -277 185 C-276.22849609 186.47533203 -276.22849609 186.47533203 -275.44140625 187.98046875 C-271.46361216 195.22868939 -266.74171872 201.08240881 -261 207 C-260.18982422 207.92039063 -260.18982422 207.92039063 -259.36328125 208.859375 C-246.73605739 222.72705662 -226.24574315 230.93901905 -208 233 C-205.60548619 233.08976127 -203.20869012 233.13013653 -200.8125 233.125 C-199.50667969 233.13015625 -198.20085937 233.1353125 -196.85546875 233.140625 C-193.31870533 233.01162451 -190.09886383 232.49771567 -186.625 231.875 C-182.94788053 231.52596861 -181.5861359 231.55656712 -178.609375 233.80859375 C-176.25793965 236.44368127 -174.13504925 239.1875198 -172 242 C-149.0030574 267.59146945 -114.44013271 281.89258873 -80.48681641 284.16845703 C-41.70425836 285.9798761 -6.46610025 271.86615198 22 246 C23.30904297 244.81664062 23.30904297 244.81664062 24.64453125 243.609375 C39.0569083 229.90059431 50.08272204 211.89043585 56.96484375 193.28515625 C58.0391088 190.91366547 58.97662018 189.61768963 61 188 C65.50559641 186.49813453 69.34213337 186.28410305 73.75 188.1875 C76.46372362 190.37355514 77.72125385 191.73209317 79 195 C79.07864396 201.61696891 77.02099673 207.15885071 74.25 213.0625 C73.74726562 214.18881836 73.74726562 214.18881836 73.234375 215.33789062 C71.13744353 219.93287114 68.74596887 224.16591687 65.94433594 228.36889648 C64.83298621 229.97435004 64.83298621 229.97435004 65 232 C88.51104844 229.16172929 106.60841586 217.18261052 121.8125 199.6875 C136.01083813 181.54807905 142.11575206 158.83240505 139.79345703 135.96630859 C136.72630473 112.01469016 124.09616256 91.07304287 105.1875 76.1875 C89.08058072 64.70039478 68.98730293 57.49208218 49 59 C47.94296875 59.26167969 46.8859375 59.52335937 45.796875 59.79296875 C41.75022263 60.6140944 39.05948719 60.87264003 35 60 C29.81444862 56.25978026 25.94230333 50.9271291 21.85253906 46.07226562 C-0.56462447 20.99623979 -37.47411972 9.79892939 -69.90234375 7.75390625 C-110.21995984 6.96879803 -149.42524916 24.90560987 -176.61621094 54.42529297 Z " transform="translate(311 17)" class="colorFFF svgShape"></path><path fill="#1e2123" d="M0 0 C1.05960937 0.36222656 2.11921875 0.72445312 3.2109375 1.09765625 C15.10410516 5.60727638 24.98815596 13.14570568 34 22 C34.61359375 22.60070312 35.2271875 23.20140625 35.859375 23.8203125 C51.51534473 40.4098951 57.87076028 62.55564499 58.02734375 84.90234375 C57.02659403 109.35656129 46.54864192 130.39847736 29.0546875 147.359375 C15.0674434 159.88827693 -4.19290426 168.22444966 -23 169 C-23.93585938 169.0515625 -24.87171875 169.103125 -25.8359375 169.15625 C-50.40709052 169.88428416 -72.66763374 160.61432427 -90.49609375 143.88891602 C-105.34508109 129.53751787 -115.15860577 108.77877925 -116 88 C-116.03996094 87.1028125 -116.07992187 86.205625 -116.12109375 85.28125 C-116.66562006 60.93772105 -108.12618955 39.53369032 -91.84375 21.62890625 C-68.63350377 -2.60291772 -31.64207389 -11.09291096 0 0 Z M-53.25 55.375 C-60.70102233 62.48733949 -64.85953231 71.59792138 -65.5 82 C-64.8516272 91.89291398 -61.06397748 101.07134776 -54 108 C-46.4979078 114.55472902 -37.41617499 118.8461 -27.22265625 118.34375 C-16.74898261 116.72391998 -8.01728394 113.1310107 -1.22265625 104.828125 C4.92554572 96.10940338 8.13148033 86.75193744 6.375 76.0625 C3.91700706 65.63220099 -1.33356098 57.41806161 -10.31640625 51.46484375 C-25.20933696 43.26536504 -40.05761015 45.20376813 -53.25 55.375 Z " transform="translate(267 81)" class="colorFFF svgShape"></path><path fill="#1e2123" d="M0 0 C24.0704715 20.62887686 40.22059503 49.07291589 44.02441406 80.71044922 C46.53961516 115.32939765 38.63481976 148.90004374 15.67675781 175.70263672 C-0.9095464 194.49945645 -19.90367365 207.54788884 -43.81933594 214.89404297 C-44.60590576 215.13670898 -45.39247559 215.379375 -46.20288086 215.62939453 C-77.45442502 224.71724717 -112.03302615 220.2233433 -140.44238281 204.68188477 C-150.17125569 199.14995987 -158.5773398 192.24906375 -166.69433594 184.58154297 C-167.44457031 183.89576172 -168.19480469 183.20998047 -168.96777344 182.50341797 C-189.28362976 163.25681725 -202.56292992 133.68475075 -203.82055664 105.78100586 C-204.71407658 70.10544942 -195.85687986 37.46540258 -170.91064453 10.89355469 C-169.51731783 9.44447569 -168.10593428 8.01282888 -166.69433594 6.58154297 C-165.84226563 5.71658203 -164.99019531 4.85162109 -164.11230469 3.96044922 C-119.83399215 -38.59187213 -46.38008077 -38.82828087 0 0 Z M-148.69433594 22.58154297 C-149.314375 23.11908203 -149.93441406 23.65662109 -150.57324219 24.21044922 C-166.96173018 39.38215852 -178.64403344 63.92113533 -179.83325195 86.18188477 C-180.82486759 115.31394412 -174.19778233 141.05627793 -154.19433594 162.95654297 C-152.39063897 164.86524331 -150.5520392 166.72383971 -148.69433594 168.58154297 C-147.95441406 169.32146484 -147.21449219 170.06138672 -146.45214844 170.82373047 C-126.25670542 189.83555778 -99.97566434 196.68824092 -72.92871094 195.96826172 C-64.81196828 195.57864824 -57.40607438 194.07844342 -49.69433594 191.58154297 C-48.56253906 191.21931641 -47.43074219 190.85708984 -46.26464844 190.48388672 C-19.10167823 180.87588167 0.2659899 160.73813834 12.73535156 135.12841797 C15.1252121 129.73042452 16.87676894 124.30430384 18.30566406 118.58154297 C18.53125 117.68822266 18.75683594 116.79490234 18.98925781 115.87451172 C24.39070694 89.83580178 18.23400171 62.91099718 4.30566406 40.58154297 C1.8244337 37.06445916 -0.8577974 33.8153088 -3.69433594 30.58154297 C-4.29632813 29.83646484 -4.89832031 29.09138672 -5.51855469 28.32373047 C-18.81450642 12.32398981 -37.83892319 2.69581595 -57.69433594 -2.41845703 C-58.57605469 -2.66337891 -59.45777344 -2.90830078 -60.36621094 -3.16064453 C-92.05780645 -10.52843584 -125.12939699 1.52601516 -148.69433594 22.58154297 Z " transform="translate(317.694 67.418)" class="colorFFF svgShape"></path><path fill="#1e2123" d="M0 0 C1.12591553 0.00523682 2.25183105 0.01047363 3.41186523 0.01586914 C4.62680664 0.0190918 5.84174805 0.02231445 7.09350586 0.02563477 C8.37290039 0.03401367 9.65229492 0.04239258 10.97045898 0.05102539 C12.2537207 0.05553711 13.53698242 0.06004883 14.85913086 0.06469727 C18.04211921 0.07652994 21.22501661 0.09301471 24.40795898 0.11352539 C36.15434617 27.07126068 47.8447658 54.04994319 59.34545898 81.11352539 C65.63885793 95.9227248 71.94175016 110.72664573 78.34545898 125.48852539 C85.16025246 141.19887398 91.91537047 156.93458103 98.65795898 172.67602539 C99.15447968 173.8351947 99.65100037 174.99436401 100.16256714 176.18865967 C100.64823151 177.32257141 101.13389587 178.45648315 101.63427734 179.62475586 C102.11718735 180.75218201 102.60009735 181.87960815 103.09764099 183.04119873 C104.05989137 185.28857133 105.02161779 187.53616835 105.98280334 189.78399658 C108.29580123 195.19158412 110.6143526 200.59662463 112.94990921 205.99450397 C114.07719098 208.60050188 115.20188044 211.20761498 116.32640839 213.81480217 C116.86706913 215.06623248 117.40903056 216.31710171 117.95233917 217.56738472 C118.70347206 219.29612705 119.44987721 221.02692128 120.19604492 222.7578125 C120.62399353 223.74575302 121.05194214 224.73369354 121.49285889 225.75157166 C122.40795898 228.11352539 122.40795898 228.11352539 122.40795898 230.11352539 C113.82795898 230.11352539 105.24795898 230.11352539 96.40795898 230.11352539 C88.56968511 212.74360261 80.85523925 195.32768656 73.31030273 177.82836914 C71.56972231 173.79187218 69.81793196 169.76122906 68.03686523 165.74243164 C67.53292236 164.60414917 67.53292236 164.60414917 67.01879883 163.44287109 C66.17618856 161.54532703 65.32940337 159.64963826 64.48217773 157.75415039 C63.40795898 155.11352539 63.40795898 155.11352539 63.40795898 153.11352539 C28.42795898 153.44352539 -6.55204102 153.77352539 -42.59204102 154.11352539 C-49.75625343 170.93897111 -49.75625343 170.93897111 -56.91992188 187.76464844 C-59.33213271 193.43011114 -61.74703853 199.09442205 -64.16253662 204.75848389 C-65.55046577 208.01594844 -66.93504119 211.27482154 -68.3190918 214.53393555 C-69.14044611 216.46285077 -69.9618922 218.39172692 -70.78344727 220.32055664 C-71.34502785 221.64672249 -71.34502785 221.64672249 -71.91795349 222.99967957 C-72.42867149 224.19649101 -72.42867149 224.19649101 -72.94970703 225.41748047 C-73.24474625 226.11182693 -73.53978546 226.8061734 -73.84376526 227.52156067 C-74.59204102 229.11352539 -74.59204102 229.11352539 -75.59204102 230.11352539 C-77.44573713 230.20090184 -79.30271642 230.22050692 -81.15844727 230.21118164 C-82.2831543 230.20795898 -83.40786133 230.20473633 -84.56665039 230.20141602 C-85.7506543 230.19303711 -86.9346582 230.1846582 -88.15454102 230.17602539 C-89.34241211 230.17151367 -90.5302832 230.16700195 -91.75415039 230.16235352 C-94.70016328 230.15052214 -97.64607782 230.13403826 -100.59204102 230.11352539 C-100.02772973 223.96123514 -97.46078086 218.74449756 -94.99047852 213.16430664 C-94.52244308 212.09223969 -94.05440765 211.02017273 -93.57218933 209.9156189 C-92.04314434 206.41642584 -90.50497116 202.92132118 -88.96704102 199.42602539 C-87.9010523 196.98927852 -86.83568542 194.55227288 -85.77148438 192.11474609 C-83.66252154 187.28560824 -81.55120102 182.4575133 -79.43823242 177.63012695 C-75.97212691 169.70332285 -72.55231097 161.75731029 -69.15454102 153.80102539 C-68.57884256 152.45464278 -68.0030764 151.10828912 -67.42724609 149.76196289 C-66.51613631 147.63142819 -65.60517886 145.50082888 -64.69462585 143.37005615 C-60.36917348 133.24868136 -56.03026849 123.13306667 -51.69363403 113.01647949 C-49.11658764 107.00464871 -46.53981268 100.99270161 -43.96313477 94.98071289 C-43.70347364 94.37487366 -43.44381252 93.76903442 -43.17628288 93.14483643 C-39.68056109 84.98853775 -36.18623247 76.83164367 -32.69316101 68.67420959 C-30.8116855 64.28037535 -28.92979986 59.88671681 -27.04782963 55.49309444 C-25.77545126 52.52253019 -24.50337002 49.55183926 -23.23171997 46.58096313 C-20.02485572 39.08907585 -16.81283905 31.59943379 -13.59204102 24.11352539 C-13.11827026 23.01212219 -12.64449951 21.91071899 -12.15637207 20.77593994 C-10.76027136 17.53432177 -9.36044087 14.29434306 -7.95922852 11.05493164 C-7.53344513 10.06605453 -7.10766174 9.07717743 -6.66897583 8.05833435 C-6.27862152 7.15817093 -5.88826721 6.25800751 -5.48608398 5.33056641 C-5.14318329 4.53731461 -4.80028259 3.74406281 -4.44699097 2.92677307 C-3.13168297 0.13716046 -3.13168297 0.13716046 0 0 Z M10.40795898 28.11352539 C9.92665527 29.2567627 9.44535156 30.4 8.94946289 31.57788086 C-1.19086148 55.65761366 -11.38579061 79.71268545 -21.69683838 103.71984863 C-22.37846575 105.30701806 -23.05975234 106.89433389 -23.74066162 108.48181152 C-25.29521322 112.10439461 -26.85608818 115.72391089 -28.43334961 119.33666992 C-28.71675705 119.9889003 -29.00016449 120.64113068 -29.29216003 121.31312561 C-30.04805595 123.05180416 -30.80757594 124.78890589 -31.56738281 126.52587891 C-32.71476333 128.95958951 -32.71476333 128.95958951 -32.59204102 131.11352539 C-4.21204102 131.11352539 24.16795898 131.11352539 53.40795898 131.11352539 C52.72893471 127.718404 52.21787763 125.33459908 50.92773438 122.28100586 C50.62487518 121.55770584 50.32201599 120.83440582 50.00997925 120.08918762 C49.51281906 118.92174263 49.51281906 118.92174263 49.00561523 117.73071289 C48.65612823 116.89952438 48.30664124 116.06833588 47.94656372 115.21195984 C46.79213731 112.46899145 45.63126652 109.72879867 44.47045898 106.98852539 C43.66373508 105.07458805 42.8575086 103.16044097 42.05175781 101.24609375 C40.36609772 97.24226939 38.67826111 93.23937261 36.98901367 89.23706055 C33.22809025 80.32098338 29.49566656 71.39298311 25.76217651 62.46539307 C24.62069604 59.73636171 23.47846916 57.00764415 22.3359375 54.27905273 C18.68533947 45.56050466 15.03841766 36.84048376 11.40795898 28.11352539 C11.07795898 28.11352539 10.74795898 28.11352539 10.40795898 28.11352539 Z " transform="translate(1097.592 18.886)" class="colorFFF svgShape"></path><path fill="#1e2123" d="M0 0 C5.02597684 4.78859357 9.76847402 9.77771103 13.625 15.5625 C13.955 5.9925 14.285 -3.5775 14.625 -13.4375 C21.885 -13.4375 29.145 -13.4375 36.625 -13.4375 C36.625 42.9925 36.625 99.4225 36.625 157.5625 C29.365 157.5625 22.105 157.5625 14.625 157.5625 C14.295 147.9925 13.965 138.4225 13.625 128.5625 C10.16 133.0175 10.16 133.0175 6.625 137.5625 C-5.25895364 151.68141057 -23.26952545 159.46000902 -41.375 161.5625 C-68.35243312 163.83706789 -92.29654496 154.71134178 -113.1875 138.0625 C-114.92731752 136.57486686 -116.65706384 135.07534921 -118.375 133.5625 C-119.54482422 132.58796875 -119.54482422 132.58796875 -120.73828125 131.59375 C-133.94550154 119.73234318 -141.45333272 99.21510287 -142.55200195 81.74853516 C-142.84051551 68.10908554 -142.97460139 55.52762641 -138.375 42.5625 C-137.9625 41.37914062 -137.55 40.19578125 -137.125 38.9765625 C-128.26785181 16.17947086 -110.3186628 -0.4363195 -88.3125 -10.3125 C-60.42545527 -22.25978424 -23.46417106 -20.58883391 0 0 Z M-103.0625 29.25 C-114.92421406 43.64943653 -120.44970261 61.05607667 -119.15625 79.71875 C-116.86317633 96.4758268 -108.37492094 111.75203943 -95.375 122.5625 C-80.10889876 133.94200509 -62.23626382 140.44276719 -43.046875 138.16796875 C-25.15244631 135.2666754 -9.71268616 126.06779217 1.453125 111.734375 C12.45311288 95.6696445 16.87586844 78.47810237 13.4375 59.125 C9.50450588 41.15340186 -0.25308271 26.22829123 -15.5625 15.8125 C-44.58364242 -1.78847495 -80.21892136 5.17163332 -103.0625 29.25 Z " transform="translate(814.375 91.438)" class="colorFFF svgShape"></path><path fill="#1e2123" d="M0 0 C7.92 0 15.84 0 24 0 C24.33 52.14 24.66 104.28 25 158 C27.97 154.04 30.94 150.08 34 146 C36.51695325 142.68442289 39.03668356 139.37129352 41.5625 136.0625 C42.95964789 134.23047826 44.35678294 132.39844673 45.75390625 130.56640625 C46.45789551 129.64359863 47.16188477 128.72079102 47.88720703 127.77001953 C51.25997761 123.34808113 54.62989132 118.92396724 58 114.5 C59.33331861 112.74998878 60.66665197 110.9999888 62 109.25 C62.66 108.38375 63.32 107.5175 64 106.625 C70 98.75 70 98.75 72.00341797 96.12060547 C73.32547597 94.38534372 74.64741769 92.64999338 75.96923828 90.91455078 C79.47409427 86.31329062 82.98145361 81.71396487 86.4921875 77.1171875 C87.59240234 75.67569336 87.59240234 75.67569336 88.71484375 74.20507812 C90.12556292 72.35685745 91.53699004 70.50917687 92.94921875 68.66210938 C93.58214844 67.83259766 94.21507812 67.00308594 94.8671875 66.1484375 C95.70419189 65.05281494 95.70419189 65.05281494 96.55810547 63.93505859 C97.75645276 62.3268465 98.88750006 60.66874991 100 59 C103.07275391 58.65942383 103.07275391 58.65942383 106.9765625 58.70703125 C107.66181 58.71127609 108.3470575 58.71552094 109.05307007 58.71989441 C111.24411129 58.73670247 113.43423632 58.77435595 115.625 58.8125 C117.10936173 58.82754421 118.59373785 58.84123307 120.078125 58.85351562 C123.71904833 58.8866121 127.35943478 58.93840793 131 59 C129.48887969 63.00080752 127.78679421 65.73546964 125 69 C121.2489721 73.47857226 117.63120369 78.02864764 114.08398438 82.66992188 C110.41509268 87.46684419 106.7116719 92.23611424 103 97 C98.19254385 103.17330564 93.40714185 109.36233251 88.64453125 115.5703125 C86.59073152 118.24065407 84.52190088 120.89897782 82.44921875 123.5546875 C81.82724609 124.35197266 81.20527344 125.14925781 80.56445312 125.97070312 C79.34695078 127.53027168 78.12827118 129.08892219 76.90820312 130.64648438 C73.49135553 135.02395427 70.19425246 139.45732953 67 144 C71.07487106 149.53011619 75.30389829 154.89951146 79.6875 160.1875 C80.2954541 160.92363525 80.9034082 161.65977051 81.52978516 162.41821289 C85.72717963 167.49102624 89.96966004 172.5238948 94.23706055 177.5378418 C97.54258555 181.43134234 100.73507907 185.40329653 103.90625 189.40625 C106.3881168 192.48080141 108.93869648 195.49160246 111.5 198.5 C116.10754579 203.91810348 120.59620606 209.41430549 125 215 C125.97900856 216.2318965 126.95818732 217.46365775 127.9375 218.6953125 C128.95858654 219.98417444 129.97942108 221.27323606 131 222.5625 C131.74056641 223.49340454 131.74056641 223.49340454 132.49609375 224.44311523 C136 228.88565643 136 228.88565643 136 230 C107.17950316 232.59920307 107.17950316 232.59920307 100.328125 227.01171875 C97.44632551 223.93664743 95.18972824 220.51837167 93.09375 216.87109375 C91.65386257 214.40785776 89.90421726 212.2988302 88.0625 210.125 C87.14017578 208.95517578 87.14017578 208.95517578 86.19921875 207.76171875 C83.29884556 204.11950943 80.3379884 200.52884211 77.375 196.9375 C76.78090332 196.21731689 76.18680664 195.49713379 75.57470703 194.75512695 C74.34537947 193.26532638 73.11588454 191.7756639 71.88623047 190.28613281 C69.97587812 187.97076401 68.06764542 185.6536655 66.16015625 183.3359375 C65.53641113 182.57804932 64.91266602 181.82016113 64.27001953 181.03930664 C63.08213383 179.59583403 61.89430479 178.15231479 60.70654297 176.70874023 C59.63611516 175.40852726 58.56456385 174.10923813 57.49169922 172.81103516 C56.50853713 171.61740236 55.53084502 170.41923987 54.55908203 169.21630859 C52.15959529 166.16286539 52.15959529 166.16286539 49 164 C48.7525 164.54785156 48.505 165.09570312 48.25 165.66015625 C46.74360569 168.4799381 44.93464489 170.89136913 43 173.4375 C42.20335937 174.48808594 41.40671875 175.53867188 40.5859375 176.62109375 C37.12318949 181.15185407 33.64936094 185.6740669 30.1640625 190.1875 C29.09285156 191.5796875 29.09285156 191.5796875 28 193 C27.20638062 193.84159668 27.20638062 193.84159668 26.39672852 194.70019531 C24.44534718 197.91327208 24.5215816 200.9552066 24.48828125 204.609375 C24.46135445 205.69958954 24.46135445 205.69958954 24.43388367 206.81182861 C24.37986759 209.12449407 24.3459144 211.43695421 24.3125 213.75 C24.27931907 215.3216431 24.24482868 216.89325914 24.20898438 218.46484375 C24.12168847 222.3099239 24.06155174 226.15407727 24 230 C16.08 230 8.16 230 0 230 C0 154.1 0 78.2 0 0 Z " transform="translate(509 19)" class="colorFFF svgShape"></path><path fill="#1e2123" d="M0 0 C0 7.92 0 15.84 0 24 C-2.3925 24.53625 -4.785 25.0725 -7.25 25.625 C-20.79743938 28.90407728 -31.92997115 34.60047253 -39.8125 46.375 C-45.86398724 56.42405284 -47.13802155 66.0385686 -47.20532227 77.59521484 C-47.22017166 79.17660751 -47.22017166 79.17660751 -47.23532104 80.78994751 C-47.2668281 84.26358824 -47.29165077 87.73724264 -47.31640625 91.2109375 C-47.33698509 93.62375233 -47.35798181 96.03656363 -47.37937927 98.44937134 C-47.43450379 104.79177995 -47.48395546 111.13422059 -47.53222656 117.47668457 C-47.58251188 123.95193319 -47.63816122 130.42713547 -47.69335938 136.90234375 C-47.80082329 149.60152433 -47.90179849 162.30074441 -48 175 C-55.92 175 -63.84 175 -72 175 C-72 118.57 -72 62.14 -72 4 C-64.41 4 -56.82 4 -49 4 C-48.67 10.6 -48.34 17.2 -48 24 C-46.845 22.47375 -45.69 20.9475 -44.5 19.375 C-40.74803807 14.70808595 -37.07960637 11.15351028 -32 8 C-31.28585937 7.54882812 -30.57171875 7.09765625 -29.8359375 6.6328125 C-20.79520093 1.52283096 -10.26391133 0 0 0 Z " transform="translate(976 74)" class="colorFFF svgShape"></path><path fill="#1e2123" d="M0 0 C7.59 0 15.18 0 23 0 C23 75.9 23 151.8 23 230 C15.41 230 7.82 230 0 230 C0 154.1 0 78.2 0 0 Z " transform="translate(1257 19)" class="colorFFF svgShape"></path><path fill="#1e2123" d="M0 0 C6.13966829 4.93869525 10.48985297 11.57138251 11.8125 19.375 C12.75486753 29.60852245 11.18668007 38.60130893 4.625 46.75 C-0.81478542 52.45942996 -7.42434979 56.00906529 -15.2890625 56.61328125 C-26.30910989 56.84541085 -34.27066053 55.0385395 -42.4296875 47.375 C-49.26146817 39.60195178 -50.55902353 32.0655172 -50.46484375 21.98828125 C-49.83147699 13.73667203 -46.32453886 6.90538904 -40.1875 1.375 C-28.2213368 -7.78849768 -12.51879899 -8.51940952 0 0 Z M-37.1875 12.375 C-41.11081833 18.12491243 -42.2234313 23.48659083 -41.1875 30.375 C-39.37973285 37.01774203 -36.01181228 41.68182901 -30.1875 45.375 C-24.09842591 48.25094705 -17.9154303 48.47522012 -11.4609375 46.5703125 C-4.92036768 43.7051082 -1.39364408 39.69264183 1.8125 33.375 C3.8169589 27.3616233 3.40141408 21.11616101 0.9140625 15.29296875 C-2.30377278 9.69028393 -6.90268321 5.72238549 -13.0859375 3.8125 C-22.90005145 1.76941308 -30.78289232 4.54714617 -37.1875 12.375 Z " transform="translate(257.188 137.625)" class="colorFFF svgShape"></path><path fill="#1e2123" d="M0 0 C2 2 2 2 2.0625 4.75 C0.31017062 10.11006635 -3.74467265 12.81863805 -8.625 15.375 C-11.23368884 16.06149706 -13.31604065 16.29015777 -16 16 C-18 14 -18 14 -18.0625 11.25 C-16.31017062 5.88993365 -12.25532735 3.18136195 -7.375 0.625 C-4.76631116 -0.06149706 -2.68395935 -0.29015777 0 0 Z " transform="translate(240 146)" class="colorFFF svgShape"></path></svg></g></svg>