<svg version="1.0" xmlns="http://www.w3.org/2000/svg" width="869.000000ptpx" height="178.000000ptpx" viewBox="0 0 869.000000 178.000000" preserveAspectRatio="xMidYMid meet" transform="rotate(0) scale(1, 1)">

<g transform="translate(0.000000,178.000000) scale(0.100000,-0.100000)" fill="#f9f871" stroke="none">
<path d="M93 1734 c-10 -4 -13 -105 -13 -455 l0 -449 25 0 25 0 0 430 0 430&#10;321 -2 322 -3 -2 -300 c-1 -165 2 -306 7 -312 6 -10 91 -13 348 -15 l339 -3 3&#10;-418 c1 -248 -1 -417 -7 -417 -5 0 -21 20 -35 45 -15 25 -29 45 -31 45 -3 0&#10;-12 -14 -20 -30 -15 -30 -15 -33 23 -105 22 -41 37 -77 34 -80 -3 -3 -297 -5&#10;-654 -5 l-648 0 0 105 0 105 -25 0 -25 0 0 -124 c0 -104 3 -125 16 -130 27&#10;-10 1371 -7 1399 4 l25 10 0 514 0 514 -152 138 c-84 77 -209 191 -278 254&#10;-69 63 -161 146 -203 184 l-78 69 -352 3 c-194 2 -358 1 -364 -2z m958 -281&#10;c47 -43 149 -136 227 -207 78 -71 142 -133 142 -138 0 -4 -134 -7 -297 -6&#10;l-298 3 -3 260 c-1 143 0 266 3 273 5 14 48 -21 226 -185z"/>
<path d="M201 1601 c-8 -5 -11 -16 -8 -25 6 -15 34 -16 254 -14 240 3 248 4&#10;248 23 0 19 -7 20 -240 22 -132 2 -246 -1 -254 -6z"/>
<path d="M211 1489 c-37 -14 -19 -34 30 -34 31 0 44 4 44 14 0 19 -44 30 -74&#10;20z"/>
<path d="M372 1492 c-25 -3 -32 -8 -30 -20 3 -15 23 -17 172 -20 118 -2 173 1&#10;183 9 30 26 -7 34 -150 34 -78 0 -157 -1 -175 -3z"/>
<path d="M195 1370 c-15 -24 12 -30 141 -30 127 0 134 1 134 20 0 19 -7 20&#10;-134 20 -79 0 -137 -4 -141 -10z"/>
<path d="M505 1370 c-11 -18 5 -30 41 -30 27 0 34 4 34 20 0 16 -7 20 -34 20&#10;-19 0 -38 -4 -41 -10z"/>
<path d="M612 1363 c2 -13 15 -19 46 -21 37 -3 42 -1 42 17 0 18 -6 21 -46 21&#10;-38 0 -45 -3 -42 -17z"/>
<path d="M195 1260 c-14 -22 9 -30 86 -30 71 0 80 2 77 18 -3 14 -16 17 -80&#10;20 -45 2 -79 -1 -83 -8z"/>
<path d="M414 1259 c-3 -6 -2 -15 4 -21 11 -11 267 -16 278 -6 3 4 4 14 1 23&#10;-5 12 -29 15 -141 15 -86 0 -137 -4 -142 -11z"/>
<path d="M3739 1203 c-53 -6 -74 -34 -73 -99 0 -37 6 -59 19 -74 18 -19 28&#10;-20 341 -20 l324 0 17 27 c26 40 23 117 -6 146 -21 22 -27 22 -304 23 -155 1&#10;-298 -1 -318 -3z"/>
<path d="M4597 1203 c-68 -8 -72 -22 -75 -298 -4 -263 0 -313 27 -346 21 -26&#10;63 -21 77 8 5 10 11 106 14 213 l5 195 150 0 c138 0 152 -2 181 -22 68 -49&#10;120 -164 131 -295 10 -114 -32 -268 -90 -334 -52 -61 -67 -64 -267 -64 l-182&#10;0 -30 -30 c-28 -28 -30 -35 -26 -81 9 -88 11 -89 238 -89 235 0 263 7 343 83&#10;68 66 118 166 148 292 19 82 21 114 16 233 -6 156 -25 235 -82 340 -46 83 -95&#10;136 -160 170 -47 24 -59 26 -215 28 -91 1 -182 0 -203 -3z"/>
<path d="M2658 1148 c-19 -34 -19 -1009 0 -1055 25 -59 74 -50 92 17 6 24 10&#10;168 10 377 -1 203 3 339 8 341 6 2 30 -30 54 -70 211 -347 251 -408 273 -408&#10;20 0 69 67 129 175 9 17 37 62 61 100 25 39 63 100 86 138 22 37 44 67 49 67&#10;5 0 10 -154 12 -362 2 -300 6 -367 18 -385 19 -29 39 -36 58 -21 40 34 42 59&#10;41 555 0 519 -3 546 -50 551 -22 3 -32 -7 -72 -67 -26 -39 -47 -73 -47 -76 0&#10;-5 -20 -38 -117 -187 -23 -37 -43 -70 -43 -73 0 -4 -18 -33 -40 -65 -22 -32&#10;-40 -63 -40 -67 0 -4 -11 -21 -24 -37 l-23 -30 -25 40 c-14 21 -67 107 -118&#10;189 -242 391 -231 375 -256 375 -14 0 -29 -9 -36 -22z"/>
<path d="M195 1150 c-16 -26 15 -30 256 -30 233 0 250 1 247 18 -3 16 -24 17&#10;-250 20 -159 1 -249 -1 -253 -8z"/>
<path d="M820 948 c-7 -7 -45 -87 -85 -178 l-73 -165 -168 -5 c-166 -5 -169&#10;-5 -172 -27 -3 -18 2 -23 20 -24 23 -1 23 -1 -2 -8 -32 -10 297 -26 344 -17&#10;37 7 52 32 108 171 20 51 34 72 42 64 3 -3 15 -61 27 -129 36 -212 55 -218&#10;174 -50 45 63 86 115 90 115 4 0 24 -31 44 -70 l37 -70 47 -3 48 -3 -66 130&#10;c-63 127 -88 157 -118 145 -9 -3 -46 -50 -83 -105 -37 -54 -71 -99 -75 -99&#10;-13 0 -16 11 -44 165 -26 147 -38 175 -72 175 -6 0 -17 -6 -23 -12z"/>
<path d="M80 695 c0 -61 3 -85 13 -85 6 0 29 -3 50 -6 l37 -7 0 52 0 51 115 1&#10;c63 1 128 2 144 3 29 1 65 27 82 58 9 17 -4 18 -216 18 l-225 0 0 -85z"/>
<path d="M1770 703 c-18 -23 -21 -37 -18 -82 8 -93 -1 -91 357 -91 343 0 341&#10;0 362 69 14 46 -2 105 -31 121 -11 6 -144 10 -334 10 l-315 0 -21 -27z"/>
<path d="M3685 707 c-34 -53 -26 -145 15 -167 11 -6 141 -10 323 -10 288 0&#10;306 1 330 20 45 36 43 145 -3 170 -11 6 -145 10 -334 10 l-316 0 -15 -23z"/>
<path d="M1226 520 c-2 -3 9 -32 25 -65 57 -119 57 -119 0 -218 -28 -48 -51&#10;-90 -51 -92 0 -3 16 -5 35 -5 25 0 38 6 48 23 8 12 33 55 56 94 l43 73 -38 95&#10;c-20 52 -42 96 -48 96 -36 5 -68 4 -70 -1z"/>
<path d="M1374 489 c-13 -27 -14 -38 -4 -75 7 -24 15 -44 19 -44 5 0 24 44 57&#10;133 5 14 0 17 -25 17 -24 0 -34 -7 -47 -31z"/>
<path d="M1775 235 c-33 -32 -35 -110 -4 -149 l20 -26 315 0 c195 0 323 4 334&#10;10 24 13 42 77 34 119 -4 17 -18 40 -32 51 -23 19 -41 20 -334 20 l-309 0 -24&#10;-25z"/>
<path d="M3691 238 c-37 -39 -39 -102 -5 -155 l14 -23 316 0 c189 0 323 4 334&#10;10 44 24 48 123 7 168 -20 22 -22 22 -333 22 -309 0 -314 0 -333 -22z"/>
</g>
</svg>