<svg version="1.0" xmlns="http://www.w3.org/2000/svg" width="100.000000ptpx" height="55.000000ptpx" viewBox="0 0 100.000000 55.000000" preserveAspectRatio="xMidYMid meet" transform="rotate(0) scale(1, 1)">

<g transform="translate(0.000000,55.000000) scale(0.100000,-0.100000)" fill="#e6e62d" stroke="none">
<path d="M450 531 c0 -6 5 -13 12 -17 7 -5 -13 -19 -53 -38 -58 -29 -64 -35&#10;-67 -65 -2 -18 -12 -43 -23 -54 -24 -26 -24 -47 0 -47 10 0 21 -7 24 -14 6&#10;-15 149 -86 173 -86 22 0 166 73 171 87 3 7 14 13 24 13 25 0 24 22 -1 45 -12&#10;11 -20 31 -20 52 0 31 -4 35 -65 65 -47 24 -62 35 -54 44 6 8 7 14 0 18 -5 4&#10;-12 2 -16 -4 -8 -13 -72 -13 -80 0 -8 13 -25 13 -25 1z m23 -98 c-4 -10 -70&#10;-26 -100 -25 -25 1 -8 24 34 45 43 22 49 23 59 9 7 -9 10 -22 7 -29z m142 25&#10;c27 -13 45 -29 45 -39 0 -15 -6 -15 -47 -7 -58 12 -67 20 -58 47 8 26 5 26 60&#10;-1z m-125 -82 c0 -2 -6 -16 -14 -31 -8 -15 -12 -42 -10 -61 2 -19 2 -34 -1&#10;-34 -10 0 -95 44 -95 49 0 4 19 14 41 25 22 10 46 27 52 37 10 17 27 26 27 15z&#10;m145 -62 c14 -3 25 -9 25 -13 0 -6 -83 -51 -94 -51 -2 0 -6 21 -8 48 -3 26 -8&#10;56 -13 67 -7 15 1 12 28 -12 21 -18 49 -36 62 -39z m-110 36 c3 -5 -1 -10 -10&#10;-10 -9 0 -13 5 -10 10 3 6 8 10 10 10 2 0 7 -4 10 -10z m10 -40 c-3 -5 -15&#10;-10 -26 -10 -10 0 -19 5 -19 10 0 6 12 10 26 10 14 0 23 -4 19 -10z m0 -30 c4&#10;-6 -5 -10 -19 -10 -14 0 -26 5 -26 10 0 6 9 10 19 10 11 0 23 -4 26 -10z m-5&#10;-34 c0 -11 -19 -15 -25 -6 -3 5 1 10 9 10 9 0 16 -2 16 -4z"/>
<path d="M81 94 c1 -25 3 -30 6 -16 4 19 7 21 19 11 11 -9 17 -9 29 1 13 10&#10;15 9 15 -9 0 -11 5 -21 10 -21 6 0 10 16 10 35 0 37 -10 44 -30 20 -10 -12&#10;-15 -12 -36 2 -24 15 -24 15 -23 -23z"/>
<path d="M240 95 c0 -33 2 -35 33 -34 30 2 30 2 4 6 -31 5 -27 22 6 24 17 1&#10;15 3 -8 9 -23 6 -25 8 -8 9 35 2 38 21 4 21 -29 0 -31 -3 -31 -35z"/>
<path d="M372 98 c-2 -35 0 -38 26 -37 22 1 23 2 5 6 -16 3 -23 13 -26 36 -4&#10;31 -4 31 -5 -5z"/>
<path d="M490 96 c0 -35 1 -36 36 -36 34 0 35 1 32 33 -3 28 -7 32 -35 35 -32&#10;3 -33 2 -33 -32z m55 14 c4 -6 -5 -10 -20 -10 -15 0 -24 4 -20 10 3 6 12 10&#10;20 10 8 0 17 -4 20 -10z m0 -30 c3 -5 -3 -10 -14 -10 -12 0 -21 5 -21 10 0 6&#10;6 10 14 10 8 0 18 -4 21 -10z"/>
<path d="M630 95 c0 -33 2 -35 33 -34 23 1 26 3 10 6 -13 2 -23 9 -23 14 0 5&#10;10 9 23 10 21 1 21 1 -3 9 -24 8 -24 8 -2 9 33 2 27 21 -8 21 -28 0 -30 -3&#10;-30 -35z"/>
<path d="M760 95 c0 -33 2 -35 33 -34 30 2 30 2 4 6 -31 5 -27 22 6 24 20 1&#10;20 2 -3 9 -16 5 -19 8 -8 9 31 2 30 21 -1 21 -29 0 -31 -3 -31 -35z"/>
<path d="M890 120 c0 -5 7 -10 17 -10 15 0 15 -1 0 -18 -24 -26 -21 -32 16&#10;-31 29 1 30 2 7 8 -17 5 -21 9 -12 14 6 5 17 17 22 28 10 17 7 19 -20 19 -16&#10;0 -30 -4 -30 -10z"/>
</g>
</svg>