<svg width="109" height="52" viewBox="0 0 109 52" fill="none" xmlns="http://www.w3.org/2000/svg">
<path d="M18.8678 10.9712C16.8164 10.9758 14.8499 11.8025 13.3964 13.2714C11.943 14.7403 11.1205 16.7323 11.1079 18.8137V18.9045C11.1255 20.3484 11.5597 21.7554 12.3567 22.9517L14.4241 26.1098L14.6869 26.5097L18.8736 32.8932L25.3847 22.9517C26.1793 21.7542 26.6132 20.3479 26.6336 18.9045V18.8078C26.6191 16.7266 25.7949 14.7354 24.3405 13.2677C22.8861 11.8 20.9192 10.9746 18.8678 10.9712ZM24.8174 18.8957C24.801 19.9821 24.4723 21.04 23.8717 21.9395L18.8678 29.5799L16.1927 25.499L15.9313 25.0976L13.8596 21.9351C13.2619 21.036 12.9344 19.9801 12.9169 18.8957V18.8225C12.9412 17.2376 13.5788 15.726 14.6921 14.614C15.8053 13.5019 17.3049 12.8786 18.8671 12.8786C20.4294 12.8786 21.929 13.5019 23.0422 14.614C24.1554 15.726 24.793 17.2376 24.8174 18.8225V18.8957Z" fill="#FF9819"/>
<path d="M18.8664 22.6179C18.15 22.6179 17.4497 22.4023 16.854 21.9985C16.2583 21.5947 15.794 21.0207 15.5199 20.3492C15.2457 19.6776 15.174 18.9387 15.3137 18.2257C15.4535 17.5128 15.7985 16.858 16.3051 16.344C16.8117 15.83 17.4571 15.48 18.1597 15.3382C18.8624 15.1964 19.5907 15.2692 20.2526 15.5473C20.9145 15.8255 21.4802 16.2966 21.8782 16.9009C22.2762 17.5053 22.4887 18.2159 22.4887 18.9427C22.4879 19.9172 22.106 20.8515 21.4269 21.5406C20.7478 22.2297 19.8269 22.6171 18.8664 22.6179ZM18.8664 17.1044C18.5081 17.1047 18.158 17.2128 17.8602 17.4149C17.5624 17.6171 17.3304 17.9043 17.1935 18.2403C17.0566 18.5762 17.0209 18.9458 17.091 19.3023C17.1611 19.6588 17.3337 19.9862 17.5872 20.2431C17.8406 20.5001 18.1635 20.675 18.5149 20.7458C18.8663 20.8166 19.2306 20.7802 19.5616 20.641C19.8925 20.5018 20.1754 20.2662 20.3745 19.9639C20.5735 19.6616 20.6797 19.3063 20.6797 18.9427C20.6793 18.4551 20.4881 17.9875 20.1481 17.6428C19.8081 17.2981 19.3471 17.1044 18.8664 17.1044Z" fill="#FF9819"/>
<path d="M29.7404 25.4184C30.1812 24.7106 30.5512 23.9598 30.8448 23.1773C31.3432 21.8622 31.6048 20.4671 31.6172 19.0583V18.8957C31.6062 16.6261 31.0068 14.3994 29.8791 12.4392C28.7515 10.4791 27.1353 8.85447 25.193 7.72862C23.2506 6.60278 21.0505 6.01533 18.8136 6.02527C16.5766 6.03521 14.3816 6.6422 12.4491 7.78527C12.1082 7.58986 11.7134 7.51364 11.3256 7.56836C10.9377 7.62308 10.5784 7.80571 10.303 8.08808C10.0276 8.37045 9.85135 8.7369 9.80147 9.13093C9.75159 9.52496 9.83082 9.9247 10.027 10.2685C10.2231 10.6124 10.5253 10.8812 10.8869 11.0336C11.2485 11.186 11.6494 11.2134 12.028 11.1118C12.4065 11.0101 12.7415 10.785 12.9815 10.4711C13.2214 10.1571 13.3529 9.77182 13.3557 9.37457C15.0139 8.39326 16.8974 7.87201 18.817 7.86321C20.7366 7.8544 22.6247 8.35834 24.2916 9.3244C25.9584 10.2905 27.3453 11.6846 28.3129 13.3667C29.2805 15.0489 29.7947 16.9598 29.8039 18.9074V19.0422C29.7925 20.2657 29.5595 21.4767 29.1167 22.6148C28.8792 23.229 28.5869 23.8198 28.2433 24.3799L29.7404 25.4184Z" fill="#FF9819"/>
<path d="M24.6225 4.06629C22.7783 3.26809 20.7975 2.84554 18.7928 2.82269C10.0944 2.86516 2.99858 10.0543 2.95816 18.8958V19.0906C2.9985 22.0174 3.88064 24.8684 5.4962 27.2934L6.36243 28.6367C6.75335 28.6411 7.13198 28.7759 7.44004 29.0201C7.7481 29.2643 7.9685 29.6045 8.06732 29.9883C8.16614 30.3721 8.13789 30.7782 7.98694 31.1441C7.83598 31.51 7.57068 31.8154 7.23188 32.0133C6.89307 32.2112 6.49955 32.2907 6.11187 32.2394C5.7242 32.1882 5.36388 32.0091 5.08637 31.7297C4.80886 31.4503 4.62954 31.0861 4.57603 30.6932C4.52253 30.3002 4.59778 29.9004 4.79023 29.5551L3.98752 28.3115C2.17891 25.5858 1.19441 22.3835 1.15497 19.098V18.8768C1.19395 9.08173 9.04628 1.08398 18.6931 0.98877H18.8678C21.0744 1.01854 23.2543 1.48268 25.2866 2.35542L24.6225 4.06629Z" fill="#FF9819"/>
<path d="M7.99671 17.7312C7.95519 18.1204 7.93303 18.5115 7.9303 18.903V19.0422C7.95836 21.0498 8.56403 23.0054 9.67286 24.6684L18.8693 38.7099L22.1393 33.8439C21.9958 33.4844 21.9698 33.0877 22.0653 32.7121C22.1608 32.3366 22.3726 32.002 22.6695 31.7578C22.9664 31.5136 23.3328 31.3725 23.7147 31.3555C24.0966 31.3384 24.4738 31.4462 24.7908 31.6631C25.1077 31.8799 25.3477 32.1942 25.4753 32.5598C25.6029 32.9254 25.6114 33.3229 25.4996 33.6938C25.3878 34.0647 25.1615 34.3893 24.8542 34.6199C24.5468 34.8505 24.1746 34.9749 23.7923 34.9747C23.7214 34.9747 23.6505 34.9703 23.5801 34.9615L18.865 42.0189L8.16563 25.685C6.86173 23.7251 6.15114 21.4212 6.12134 19.0568V18.8957C6.12264 18.4322 6.14866 17.9692 6.1993 17.5085L7.99671 17.7312Z" fill="#FF9819"/>
<path d="M36.5865 18.8797C36.5865 18.9529 36.5865 19.0262 36.5865 19.0994C36.5442 22.3808 35.5577 25.5782 33.7481 28.2983L18.878 51.0128L12.1171 40.7212L13.6257 39.6958L18.7682 47.5427L32.1861 27.0576C33.7911 24.648 34.6682 21.8155 34.7097 18.9075V18.7142C34.6972 15.9377 33.9744 13.2122 32.612 10.8043H32.6047C32.2517 10.8046 31.9066 10.6987 31.613 10.4999C31.3193 10.3011 31.0904 10.0185 30.9551 9.68769C30.8198 9.35689 30.7843 8.99282 30.853 8.64152C30.9217 8.29023 31.0915 7.96749 31.341 7.71415C31.5905 7.4608 31.9085 7.28822 32.2546 7.21825C32.6008 7.14827 32.9597 7.18404 33.2858 7.32102C33.612 7.45801 33.8907 7.69007 34.0869 7.98783C34.283 8.28559 34.3877 8.63569 34.3877 8.99383C34.3894 9.30132 34.3128 9.60406 34.1654 9.8727C34.6554 10.7308 35.0718 11.6301 35.4099 12.5606H35.4229C36.1829 14.5786 36.5771 16.7194 36.5865 18.8797Z" fill="#FF9819"/>
<path d="M69.4655 27.6141V30.8322H79.0604V34.5177H65.2484V17.1482H78.9333V20.8321H69.4655V23.9302V27.6141Z" fill="white"/>
<path d="M94.9989 17.1482H99.1958V34.5177H95.6211L95.572 34.4532L87.3198 24.0298V34.5177H83.1287V17.1482H86.9805L94.9989 27.2919V17.1482Z" fill="white"/>
<path d="M55.9177 25.6352L62.2065 34.5177H57.2257L57.1679 34.4386L53.3537 28.8182L49.4528 34.5177H44.5918L50.8878 25.6864L44.8459 17.1482H49.8353L53.4518 22.524L57.0986 17.1482H61.9596L55.9177 25.6352Z" fill="white"/>
<path d="M107.851 17.1482H103.605V34.5177H107.851V17.1482Z" fill="white"/>
<path d="M77.2976 23.9902H71.8404V27.6742H77.2976V23.9902Z" fill="#FF9819"/>
<path d="M28.672 6.59165L28.7529 6.56968C28.935 6.52447 29.0956 6.41558 29.2064 6.26214C29.3171 6.1087 29.3711 5.92054 29.3587 5.73075C29.3463 5.54095 29.2683 5.36168 29.1385 5.22444C29.0087 5.0872 28.8353 5.00078 28.6489 4.98038C28.5205 4.96574 28.3891 4.98038 28.2591 4.96866C28.1889 4.96868 28.1215 4.94078 28.0713 4.89095C28.0211 4.84111 27.9921 4.77331 27.9906 4.70207C27.9914 4.62927 28.0202 4.55967 28.0709 4.50819C28.1217 4.45671 28.1903 4.42746 28.262 4.42669C28.3241 4.42669 28.3862 4.42669 28.4483 4.42669C28.6923 4.42669 28.7457 4.46478 28.8265 4.69768H29.3419C29.3419 4.30512 29.1124 4.02974 28.6706 3.89058V3.53903H28.1422V3.79537C28.1422 3.88033 28.122 3.90083 28.0469 3.92134C27.8625 3.97145 27.7019 4.08721 27.5946 4.24747C27.4874 4.40773 27.4405 4.60181 27.4625 4.79424C27.4846 4.98668 27.5742 5.16465 27.7148 5.29564C27.8555 5.42662 28.038 5.5019 28.2288 5.50771C28.3371 5.50771 28.4468 5.50771 28.5551 5.50771C28.6259 5.50771 28.6939 5.53626 28.744 5.58708C28.7941 5.6379 28.8222 5.70682 28.8222 5.77869C28.8222 5.85056 28.7941 5.91949 28.744 5.97031C28.6939 6.02113 28.6259 6.04968 28.5551 6.04968C28.4815 6.04968 28.4107 6.04968 28.3342 6.04968C28.1148 6.04968 28.0455 6.00134 27.9877 5.79334H27.4694C27.4644 5.94307 27.5058 6.09064 27.5878 6.2152C27.6497 6.31541 27.7322 6.4009 27.8296 6.46586C27.927 6.53083 28.0371 6.57373 28.1523 6.59165V6.9432H28.6778L28.672 6.59165ZM25.8987 5.24405C25.8984 4.7407 26.0453 4.24857 26.3207 3.82994C26.5961 3.4113 26.9878 3.08496 27.4461 2.8922C27.9044 2.69944 28.4087 2.64893 28.8953 2.74706C29.3819 2.84519 29.8288 3.08754 30.1796 3.44346C30.5304 3.79938 30.7693 4.25287 30.866 4.74656C30.9627 5.24025 30.9129 5.75196 30.723 6.21693C30.533 6.68191 30.2113 7.07927 29.7987 7.35873C29.3861 7.63819 28.9011 7.78721 28.405 7.78692C27.7404 7.78653 27.1031 7.5185 26.6332 7.0417C26.1632 6.5649 25.8991 5.91834 25.8987 5.24405Z" fill="white"/>
<path d="M6.83019 11.2539H9.25706V11.7475H9.97892V16.1785H8.52799V15.6248H7.55782V16.1785H6.104V11.7446H6.82586L6.83019 11.2539ZM7.73684 13.3456H7.13914V13.9506H7.73684V13.3456ZM8.951 13.9535V13.3442H8.35041V13.9535H8.951ZM7.14059 12.1167V12.7231H7.73684V12.1167H7.14059ZM8.94955 12.1167H8.35186V12.7202H8.951L8.94955 12.1167ZM7.1377 15.1781H7.73684V14.5731H7.1377V15.1781ZM8.94811 15.1781V14.5746H8.35041V15.181L8.94811 15.1781Z" fill="white"/>
<path d="M24.1244 27.2832L24.3785 26.8994L27.0421 26.9844L27.5489 26.2168C27.8073 25.8272 28.0527 25.6119 28.2707 25.5679C28.2943 25.5659 28.3179 25.5659 28.3415 25.5679C28.3923 25.5668 28.4424 25.5806 28.4858 25.6075C28.5164 25.6308 28.5421 25.66 28.5614 25.6935C28.5807 25.7269 28.5933 25.7639 28.5984 25.8023C28.6461 26.0294 28.5407 26.3399 28.2823 26.7295L27.7741 27.4941L28.8496 29.9682L28.5927 30.3505L26.9382 28.7509L26.29 29.7294C26.2335 29.8151 26.1708 29.8964 26.1023 29.9726L26.5729 30.9174L26.3997 31.1796L25.5464 30.4472L25.3905 30.5629C25.3626 30.5846 25.3286 30.5968 25.2934 30.5977C25.2582 30.5987 25.2236 30.5884 25.1945 30.5683C25.1654 30.5482 25.1433 30.5193 25.1313 30.4857C25.1193 30.4521 25.1181 30.4156 25.1278 30.3812L25.1725 30.1879L24.1807 29.6694L24.3539 29.4057L25.3949 29.4965C25.4363 29.4032 25.4846 29.3131 25.5392 29.227L26.1903 28.25L24.1244 27.2832Z" fill="white"/>
<path d="M11.0761 38.7364C11.5858 38.3263 11.6984 37.8575 11.4082 37.4269C11.3408 37.3286 11.2546 37.245 11.1547 37.1812C11.0549 37.1173 10.9434 37.0745 10.8269 37.0552C10.7104 37.036 10.5913 37.0406 10.4766 37.069C10.3619 37.0974 10.2541 37.1488 10.1594 37.2204L8.77774 35.155C8.8989 35.0799 9.00038 34.9763 9.07353 34.8528C9.14669 34.7294 9.18934 34.5898 9.19786 34.446C9.20816 34.2562 9.1575 34.0681 9.05349 33.9099C8.8095 33.532 8.43125 33.4339 7.88842 33.617C7.83789 33.4207 7.78447 33.2273 7.74405 33.0311C7.73683 32.9959 7.7787 32.9402 7.8119 32.9095C7.84511 32.8787 7.92162 32.8362 7.97215 32.7938C8.01089 32.7584 8.05692 32.7323 8.10688 32.7174C8.15684 32.7024 8.20946 32.699 8.26089 32.7073C8.31476 32.7142 8.36943 32.705 8.41826 32.681C8.56263 32.5887 8.707 32.4891 8.84126 32.388C8.85812 32.3697 8.87931 32.3561 8.90281 32.3485C8.92632 32.3409 8.95136 32.3395 8.97554 32.3445C8.99973 32.3495 9.02224 32.3607 9.04094 32.377C9.05964 32.3934 9.0739 32.4143 9.08236 32.4378L9.10546 32.4715C9.22629 32.7122 9.40322 32.9194 9.62087 33.075C9.96699 33.2817 10.2861 33.5317 10.5708 33.8191C11.0294 34.2977 11.3409 34.9013 11.4674 35.5564C11.5113 35.8111 11.5388 36.0685 11.5497 36.3268C11.5545 36.5175 11.6148 36.7025 11.7229 36.8586C11.9524 37.1655 12.1332 37.507 12.2585 37.8707C12.3025 38.017 12.3258 38.1689 12.3278 38.3219C12.3312 38.4045 12.312 38.4864 12.2722 38.5585C12.2324 38.6307 12.1737 38.6902 12.1026 38.7306C11.9308 38.836 11.7677 38.9591 11.6002 39.0718C11.5629 39.0967 11.5183 39.1076 11.474 39.1025C11.4296 39.0974 11.3885 39.0767 11.3576 39.044C11.2609 38.9473 11.17 38.8433 11.0761 38.7364ZM10.6733 34.3962C10.3948 33.9895 10.0328 33.6487 9.61221 33.3973C9.74036 33.8666 9.96524 34.3029 10.272 34.6775L10.6733 34.3962ZM10.4366 34.9221L11.245 36.1349C11.2448 35.6103 11.1057 35.0953 10.8422 34.6438L10.4366 34.9221Z" fill="white"/>
<path d="M10.3644 37.4371C10.4926 37.3491 10.6501 37.3164 10.8021 37.3462C10.9541 37.376 11.0883 37.4659 11.175 37.596C11.2617 37.7262 11.2939 37.8859 11.2646 38.0402C11.2352 38.1944 11.1466 38.3305 11.0184 38.4185C10.8901 38.5065 10.7326 38.5392 10.5806 38.5094C10.4286 38.4796 10.2944 38.3897 10.2077 38.2596C10.121 38.1294 10.0888 37.9697 10.1181 37.8154C10.1475 37.6612 10.2361 37.5251 10.3644 37.4371Z" fill="white"/>
<path d="M8.00104 33.8996C8.0635 33.8547 8.13414 33.8228 8.20885 33.8059C8.28356 33.7889 8.36084 33.7872 8.43621 33.8008C8.51157 33.8145 8.58352 33.8432 8.64785 33.8853C8.71219 33.9274 8.76763 33.982 8.81096 34.046C8.8754 34.1413 8.91065 34.2537 8.91229 34.3692C8.91393 34.4847 8.88189 34.5981 8.82018 34.6952C8.75848 34.7923 8.66986 34.8687 8.56548 34.9148C8.4611 34.961 8.34561 34.9748 8.23353 34.9545C8.12144 34.9342 8.01776 34.8808 7.93552 34.8009C7.85328 34.721 7.79615 34.6183 7.7713 34.5055C7.74646 34.3928 7.75501 34.2751 7.79589 34.1673C7.83676 34.0595 7.90814 33.9663 8.00104 33.8996Z" fill="white"/>
</svg>
